<svg width="113" height="63" viewBox="0 0 113 63" fill="none" xmlns="http://www.w3.org/2000/svg">
<path d="M10.1012 27.3563C8.94598 29.327 8.25046 31.4695 7.76279 33.684C7.26713 35.9345 7.11124 38.2249 7.31909 40.5153C7.64287 44.0489 8.69815 47.3706 10.449 50.4685C10.6128 50.7603 11.0286 51.204 10.8367 51.3519C10.5249 51.5878 10.2731 51.0841 10.0332 50.8683C4.42507 45.9196 1.19928 39.7279 0.239936 32.3129C0.112024 31.3176 -0.00389683 30.3343 0.000100437 29.339C0.0760485 15.1287 9.73344 3.95635 22.1889 0.85047C36.2673 -2.65913 51.1811 4.97165 56.3655 18.6103C56.4335 18.7862 56.5214 18.9501 56.6613 19.2499C59.5074 12.2866 64.1762 7.0982 70.8117 3.77647C77.4751 0.442749 84.4543 -0.204808 91.6334 1.74985C103.094 4.87172 111.212 14.5371 112.747 25.9053C114.214 36.7779 109.069 46.4433 103.321 51.1601C104.569 48.7497 105.532 46.4353 105.944 43.933C105.956 43.913 105.968 43.897 105.98 43.877C106.016 43.6412 106.052 43.4054 106.088 43.1695C106.1 43.1335 106.112 43.0936 106.12 43.0576C106.147 42.7978 106.171 42.538 106.199 42.2821C106.171 42.3461 106.199 42.3621 106.227 42.2981C106.255 42.2302 106.239 42.1422 106.243 42.0623C106.275 41.6825 106.307 41.3028 106.339 40.9271C106.351 40.951 106.363 40.971 106.375 40.991C106.375 40.951 106.363 40.9071 106.367 40.8671C106.487 39.3401 106.471 37.8052 106.251 36.2982C105.216 29.1791 101.758 23.503 95.8745 19.3618C92.285 16.8355 88.2557 15.4845 83.8707 15.1527C80.513 14.8969 77.2592 15.3326 74.0934 16.4558V16.4478L74.0694 16.4878C73.8776 16.4918 73.7017 16.5357 73.5738 16.6956L73.5858 16.6756C73.3699 16.6677 73.186 16.7556 73.0102 16.8755H73.0341C72.8103 16.8915 72.6104 16.9754 72.4346 17.1193L72.4026 17.1433L72.4266 17.1473C72.2867 17.2033 72.1467 17.2632 72.0068 17.3192C71.9789 17.3272 71.9509 17.3392 71.9229 17.3472C71.6911 17.3952 71.4832 17.4911 71.3113 17.655C71.0355 17.7869 70.7557 17.9228 70.4799 18.0547C70.352 18.1266 70.2201 18.1946 70.0922 18.2666L70.0602 18.2825H70.0842C69.9962 18.3345 69.9083 18.3865 69.8163 18.4424C65.5473 20.8768 62.3335 24.3024 60.1989 28.7234C58.0684 33.1284 57.3049 37.7692 57.9005 42.6579C57.2729 41.7185 56.9172 40.6552 56.4375 39.54C56.2616 39.8318 56.1377 40.0397 56.0138 40.2435C55.8699 39.0044 56.0977 37.7372 55.5221 36.574C55.0225 35.227 54.5228 33.8799 54.0191 32.5328C53.7553 31.7773 53.4995 30.9579 53.2717 30.0705C52.9839 28.9592 52.784 27.916 52.6401 26.9606C52.5482 26.8887 52.4602 26.8127 52.3683 26.7408C52.4642 26.5329 52.4962 26.421 52.4682 26.401C52.4482 26.389 52.4043 26.417 52.3323 26.4809C52.2883 26.4649 52.2444 26.445 52.2044 26.429C52.1684 26.329 52.1124 26.2131 52.0365 26.0932C51.9885 26.0173 51.9406 25.9533 51.8966 25.9013C51.1371 24.4303 49.822 22.3078 47.6515 20.2652C44.07 16.8955 40.2686 15.7403 38.5058 15.2206C35.5718 14.3572 32.4539 14.0734 29.1642 14.3852C23.6959 14.9049 18.9232 17.1113 14.9139 20.8888C13.4909 22.2318 12.1758 23.6789 11.2164 25.4097L11.2324 25.4017C11.0765 25.5096 10.9886 25.6575 10.9366 25.8334C10.9206 25.8614 10.9086 25.8933 10.8926 25.9213C10.8287 26.0252 10.7607 26.1252 10.6968 26.2291L10.6808 26.2091C10.6008 26.357 10.5249 26.5049 10.445 26.6528C10.377 26.7767 10.3051 26.8967 10.2371 27.0206C10.1931 27.1285 10.1492 27.2404 10.1092 27.3483L10.1012 27.3563Z" fill="#060302"/>
<path d="M72.4312 17.119C72.6071 16.9751 72.803 16.8951 73.0308 16.8711L73.0068 16.8751C73.1787 16.7552 73.3626 16.6673 73.5824 16.6753L73.5704 16.6952C73.6983 16.5354 73.8742 16.4914 74.0661 16.4874C74.0581 16.4714 74.0661 16.4594 74.0901 16.4554C77.2599 15.3322 80.5097 14.9005 83.8674 15.1523C88.2524 15.4841 92.2816 16.8311 95.8712 19.3614C101.755 23.5066 105.213 29.1787 106.248 36.2978C106.468 37.8088 106.488 39.3398 106.364 40.8667C106.364 40.9067 106.368 40.9507 106.372 40.9906C106.36 40.9706 106.348 40.9507 106.336 40.9267C106.284 40.6509 106.424 40.3591 106.236 40.0792C106.024 42.9173 105.381 45.6354 104.257 48.2097C100.992 55.6886 95.3555 60.4373 87.405 62.2281C80.2059 63.851 73.5385 62.384 67.6545 57.919C62.51 54.0137 59.4241 48.7933 58.5127 42.3617C57.5934 35.8581 59.1683 29.9542 63.0336 24.6898C64.7445 22.3594 66.883 20.4167 69.3133 18.8178C69.4892 18.7019 69.6491 18.562 69.813 18.4341C69.9009 18.3821 69.9889 18.3301 70.0768 18.2782L70.0848 18.2622C70.2127 18.1902 70.3446 18.1223 70.4726 18.0543C70.7484 17.9224 71.0282 17.7865 71.308 17.6546C71.4799 17.4907 71.6877 17.3948 71.9196 17.3468C71.9475 17.3388 71.9755 17.3268 72.0035 17.3188C72.1434 17.2629 72.2833 17.2029 72.4232 17.1469L72.4592 17.115H72.4272L72.4312 17.119ZM66.0516 34.1233C65.8997 39.1999 70.0169 41.6742 73.5425 41.1625C77.6716 40.5629 80.2339 35.7622 78.2352 32.1047C76.9441 29.7463 74.8695 28.3433 72.2593 27.8516C69.5212 27.336 67.5585 28.5271 66.5552 31.1094C66.1795 32.0807 66.0316 33.088 66.0556 34.1233H66.0516ZM99.4248 37.0014C99.4248 36.6896 99.4447 36.3818 99.4248 36.07C99.2808 33.9315 98.2016 32.6643 96.079 32.3206C93.5608 31.9088 91.2423 32.5764 89.1358 33.9394C86.8014 35.4504 86.0099 37.3931 86.6775 40.0792C87.2731 42.4816 88.84 44.0645 91.2224 44.6681C93.8566 45.3357 96.135 44.5762 97.8858 42.4656C99.2009 40.8827 99.3728 38.952 99.4287 37.0014H99.4248ZM66.1915 46.7747C67.6825 51.9711 72.6631 57.1955 80.6016 57.955C86.5056 58.5226 94.2443 54.9051 95.4195 50.9998C90.8186 54.7212 85.7221 56.496 79.8461 55.5726C74.0101 54.6573 69.5532 51.5754 66.1875 46.7707L66.1915 46.7747Z" fill="#FAE500"/>
<path d="M54.7709 32.1572C55.0227 33.6282 55.2706 35.1032 55.5224 36.5742C55.4065 39.5042 55.3505 42.4302 54.3952 45.2563C51.697 53.2468 46.3726 58.6391 38.2982 61.0055C30.2037 63.3798 22.7368 61.761 16.1613 56.4646C12.5198 53.5306 10.1015 49.7172 8.69042 45.2563C7.3993 41.183 7.26739 37.0499 8.15878 32.9047C8.5705 30.99 9.1661 29.0993 10.1094 27.3525C10.1534 27.2446 10.1974 27.1327 10.2374 27.0287C10.3053 26.9048 10.3773 26.7849 10.4492 26.661C10.5292 26.5131 10.6051 26.3652 10.6851 26.2173L10.701 26.2373C10.765 26.1333 10.833 26.0334 10.8969 25.9295C10.9129 25.9015 10.9249 25.8695 10.9409 25.8375C10.9928 25.6617 11.0808 25.5098 11.2367 25.4058L11.2207 25.4138C12.18 23.683 13.4911 22.236 14.9182 20.8929C18.9274 17.1155 23.7002 14.909 29.1684 14.3894C36.1316 13.7298 42.3154 15.7324 47.6558 20.2693C49.5425 21.8722 51.1334 23.727 52.3725 25.8775C52.2526 26.1373 52.2486 26.3372 52.6084 26.3572L52.6044 26.3492C52.5364 26.5091 52.5524 26.625 52.7563 26.645L52.7483 26.633C52.6244 26.8928 52.8242 27.0767 52.9082 27.2885C53.104 27.7682 53.3639 28.2119 53.5277 28.7116C53.9115 29.8708 54.3592 31.01 54.7789 32.1572H54.7709ZM32.2503 57.4479C34.9285 57.4359 37.1909 56.9762 39.3055 55.9529C43.3627 53.9943 45.909 50.9284 46.1568 46.2676C46.2207 45.0524 45.6172 44.5527 44.422 44.7886C40.5526 45.5481 36.7592 46.5833 33.0458 47.9104C30.1917 48.9297 27.3936 50.0889 24.6915 51.468C23.5842 52.0356 23.4403 52.7112 24.1998 53.7025C24.2997 53.8344 24.4077 53.9623 24.5196 54.0902C26.6581 56.5205 29.4402 57.4199 32.2543 57.4519L32.2503 57.4479ZM13.8789 38.5009C13.8789 42.0584 16.669 44.8765 20.2105 44.8885C23.8081 44.9005 26.6621 42.0864 26.6541 38.5289C26.6501 35.0113 23.856 32.2372 20.3065 32.2292C16.6929 32.2212 13.8789 34.9633 13.8749 38.5009H13.8789ZM40.8005 38.1491C44.386 38.1571 47.2401 35.327 47.2361 31.7735C47.2321 28.4637 44.334 25.7056 40.8284 25.6697C37.2949 25.6337 34.4368 28.3678 34.4208 31.7935C34.4048 35.2911 37.2669 38.1411 40.8005 38.1491Z" fill="#FAE500"/>
<path d="M106.245 42.0648C106.245 42.1447 106.257 42.2326 106.229 42.3006C106.201 42.3646 106.169 42.3486 106.201 42.2846C106.201 42.2207 106.205 42.1607 106.213 42.0967C106.213 42.0847 106.233 42.0768 106.245 42.0648Z" fill="#FAE500"/>
<path d="M106.119 43.0579C106.107 43.0979 106.099 43.1339 106.087 43.1698C106.099 43.1299 106.111 43.0939 106.119 43.0579Z" fill="#FAE500"/>
<path d="M105.973 43.88C105.973 43.88 105.949 43.916 105.938 43.936L105.945 43.872L105.977 43.884L105.973 43.88Z" fill="#FAE500"/>
<path d="M71.3105 17.6562C71.0307 17.7922 70.7509 17.9241 70.4751 18.056C70.7549 17.9201 71.0307 17.7882 71.3105 17.6562Z" fill="#FBFAF4"/>
<path d="M10.4392 26.6613C10.3672 26.7853 10.2992 26.9092 10.2273 27.0291C10.2992 26.9052 10.3672 26.7813 10.4392 26.6613Z" fill="#FBFAF4"/>
<path d="M74.0813 16.4566C74.0613 16.4566 74.0533 16.4726 74.0573 16.4886L74.0853 16.4486V16.4566H74.0813Z" fill="#FBFAF4"/>
<path d="M72.4309 17.121L72.4629 17.117L72.4229 17.149L72.399 17.141L72.4309 17.121Z" fill="#FBFAF4"/>
<path d="M70.0967 18.2663L70.084 18.2832H70.0587L70.0967 18.2663Z" fill="#FBFAF4"/>
<path d="M66.0524 34.1233C66.0325 33.088 66.1764 32.0807 66.5521 31.1094C67.5554 28.5271 69.5181 27.3359 72.2562 27.8516C74.8704 28.3433 76.945 29.7463 78.2321 32.1047C80.2347 35.7622 77.6685 40.5629 73.5393 41.1625C70.0137 41.6741 65.8966 39.1998 66.0485 34.1233H66.0524ZM67.9591 36.4617C67.9751 38.3684 69.5261 39.8954 71.4448 39.8874C73.3395 39.8834 74.9144 38.3124 74.9144 36.4257C74.9144 34.507 73.3115 32.9401 71.3768 32.9681C69.4621 32.9961 67.9432 34.543 67.9591 36.4577V36.4617Z" fill="#FBFAF4"/>
<path d="M99.4263 37.0015C99.3663 38.9482 99.1944 40.8829 97.8833 42.4658C96.1285 44.5764 93.8541 45.3358 91.2199 44.6683C88.8415 44.0647 87.2706 42.4818 86.675 40.0794C86.0114 37.3973 86.8029 35.4506 89.1333 33.9396C91.2439 32.5726 93.5583 31.909 96.0765 32.3208C98.1991 32.6685 99.2784 33.9316 99.4223 36.0702C99.4422 36.378 99.4223 36.6898 99.4223 37.0015H99.4263ZM91.3278 43.1254C93.2505 43.1254 94.7814 41.5984 94.7934 39.6797C94.8054 37.785 93.2505 36.2181 91.3478 36.2021C89.4131 36.1901 87.8342 37.761 87.8462 39.6917C87.8582 41.5944 89.4091 43.1254 91.3278 43.1214V43.1254Z" fill="#FBFAF4"/>
<path d="M66.1943 46.7766C69.56 51.5773 74.0169 54.6632 79.8529 55.5786C85.7289 56.4979 90.8254 54.7231 95.4263 51.0057C94.2471 54.915 86.5084 58.5285 80.6084 57.9609C72.6698 57.1975 67.6893 51.973 66.1983 46.7806L66.1943 46.7766Z" fill="#060302"/>
<path d="M32.2496 57.4486C29.4355 57.4167 26.6574 56.5173 24.5148 54.0869C24.4029 53.963 24.299 53.8311 24.1951 53.6992C23.4356 52.7079 23.5755 52.0283 24.6867 51.4647C27.3889 50.0857 30.187 48.9265 33.041 47.9072C36.7545 46.5801 40.5479 45.5448 44.4172 44.7853C45.6124 44.5535 46.216 45.0491 46.152 46.2643C45.9042 50.9291 43.358 53.991 39.3007 55.9497C37.1862 56.973 34.9277 57.4327 32.2456 57.4446L32.2496 57.4486ZM34.2522 55.526C36.1189 55.418 37.8537 54.9024 39.4047 53.8351C39.9603 53.4514 40.424 52.9717 40.7078 52.3481C40.7917 52.1603 40.9276 51.9444 40.7477 51.7525C40.5958 51.5926 40.384 51.6766 40.2041 51.7246C39.4246 51.9444 38.6452 52.1643 37.8737 52.4041C36.1029 52.9597 34.3561 53.5913 32.6573 54.3428C32.4694 54.4267 32.2096 54.4787 32.1896 54.7305C32.1656 55.0303 32.4574 55.1022 32.6573 55.2062C33.1529 55.462 33.6966 55.53 34.2562 55.53L34.2522 55.526Z" fill="#060302"/>
<path d="M13.8752 38.5006C13.8752 34.9631 16.6932 32.2209 20.3068 32.2289C23.8523 32.2369 26.6464 35.011 26.6544 38.5286C26.6584 42.0902 23.8084 44.9043 20.2108 44.8883C16.6652 44.8763 13.8752 42.0582 13.8792 38.5006H13.8752ZM20.2388 42.5459C22.1415 42.5579 23.7164 41.0149 23.7404 39.1202C23.7604 37.2215 22.2214 35.6466 20.3187 35.6186C18.3801 35.5866 16.7892 37.1456 16.7852 39.0762C16.7852 40.9749 18.3321 42.5339 20.2388 42.5459Z" fill="#FBFAF4"/>
<path d="M40.7927 38.148C37.2591 38.14 34.3971 35.2939 34.4131 31.7923C34.4291 28.3667 37.2871 25.6326 40.8207 25.6685C44.3263 25.7045 47.2243 28.4626 47.2283 31.7724C47.2323 35.3259 44.3783 38.152 40.7927 38.148ZM44.3143 32.292C44.2983 30.3973 42.7274 28.8504 40.8247 28.8623C38.878 28.8743 37.3471 30.4413 37.3711 32.3919C37.3951 34.2866 38.986 35.8216 40.8887 35.7896C42.7914 35.7576 44.3263 34.1907 44.3103 32.288L44.3143 32.292Z" fill="#FBFAF4"/>
<path d="M67.96 36.4622C67.944 34.5475 69.463 32.9966 71.3777 32.9726C73.3124 32.9446 74.9153 34.5155 74.9153 36.4302C74.9153 38.3129 73.3403 39.8839 71.4456 39.8919C69.527 39.8959 67.976 38.3729 67.96 36.4662V36.4622Z" fill="#060302"/>
<path d="M91.3299 43.1251C89.4112 43.1251 87.8602 41.5981 87.8482 39.6955C87.8363 37.7648 89.4152 36.1899 91.3498 36.2058C93.2525 36.2178 94.8075 37.7888 94.7955 39.6835C94.7835 41.6021 93.2525 43.1251 91.3299 43.1291V43.1251Z" fill="#060302"/>
<path d="M34.249 55.5249C33.6894 55.5249 33.1457 55.4569 32.6501 55.2011C32.4542 55.1011 32.1584 55.0292 32.1824 54.7254C32.2024 54.4736 32.4622 54.4216 32.6501 54.3377C34.3489 53.5862 36.0917 52.9506 37.8665 52.399C38.638 52.1592 39.4174 51.9393 40.1969 51.7195C40.3768 51.6675 40.5886 51.5875 40.7405 51.7474C40.9204 51.9393 40.7845 52.1552 40.7006 52.343C40.4168 52.9666 39.9571 53.4463 39.3974 53.83C37.8465 54.9013 36.1117 55.4169 34.245 55.5209L34.249 55.5249Z" fill="#FBFAF4"/>
<path d="M20.2354 42.5463C18.3287 42.5343 16.7778 40.9754 16.7818 39.0767C16.7818 37.146 18.3767 35.5871 20.3154 35.619C22.2181 35.651 23.757 37.2259 23.737 39.1206C23.717 41.0154 22.1381 42.5583 20.2354 42.5463Z" fill="#060302"/>
<path d="M44.3176 32.2941C44.3336 34.1968 42.7986 35.7637 40.8959 35.7957C38.9932 35.8277 37.4023 34.2887 37.3783 32.398C37.3503 30.4474 38.8813 28.8804 40.832 28.8684C42.7347 28.8565 44.3056 30.3994 44.3216 32.2981L44.3176 32.2941Z" fill="#060302"/>
</svg>
